<svg width="211" height="64" viewBox="0 0 211 64" fill="none" xmlns="http://www.w3.org/2000/svg">
<path d="M82.893 38.294C82.893 39.2107 82.7944 40.0171 82.5971 40.7133C82.4115 41.3979 82.162 41.9896 81.8487 42.4886C81.547 42.9759 81.2047 43.382 80.8218 43.7069C80.4389 44.0202 80.0444 44.2697 79.6383 44.4553C79.2438 44.641 78.8609 44.7686 78.4896 44.8382C78.1299 44.9195 77.8166 44.9601 77.5497 44.9601C77.4105 44.9601 77.219 44.9485 76.9753 44.9253C76.7317 44.9137 76.4532 44.8789 76.1399 44.8208C75.8266 44.7628 75.4785 44.6758 75.0956 44.5598C74.7243 44.4553 74.3298 44.3045 73.9121 44.1072L74.1035 39.7212C74.7881 40.3014 75.3973 40.6901 75.931 40.8873C76.4764 41.0846 76.9347 41.1832 77.306 41.1832C78.0254 41.1832 78.565 40.9221 78.9247 40.4C79.296 39.8779 79.4816 39.1991 79.4816 38.3636C79.4816 37.8067 79.3424 37.1859 79.0639 36.5013C78.7971 35.8051 78.3155 35.0567 77.6193 34.2561C77.1436 33.6991 76.6505 33.1189 76.1399 32.5156C75.6294 31.9122 75.1652 31.2682 74.7475 30.5836C74.3298 29.899 73.9875 29.1622 73.7206 28.3732C73.4538 27.5842 73.3203 26.7313 73.3203 25.8147C73.3203 24.6544 73.477 23.6507 73.7902 22.8036C74.1151 21.9566 74.5445 21.2546 75.0782 20.6977C75.612 20.1407 76.2211 19.7288 76.9057 19.4619C77.6019 19.1834 78.3271 19.0442 79.0813 19.0442C79.7427 19.0442 80.4157 19.137 81.1003 19.3227C81.7965 19.4967 82.4927 19.7694 83.1889 20.1407L82.8582 24.5267C82.5565 24.1438 82.2374 23.8421 81.9009 23.6217C81.576 23.3896 81.2569 23.2156 80.9437 23.0995C80.642 22.9835 80.3577 22.9081 80.0908 22.8733C79.8355 22.8385 79.6209 22.821 79.4468 22.821C79.1103 22.821 78.7971 22.9081 78.507 23.0821C78.2285 23.2446 77.9848 23.4708 77.776 23.7609C77.5787 24.0394 77.4221 24.3759 77.306 24.7704C77.19 25.1533 77.132 25.5594 77.132 25.9887C77.132 26.6501 77.2712 27.2477 77.5497 27.7814C77.8398 28.3152 78.1995 28.8431 78.6288 29.3653C79.0581 29.8874 79.5165 30.427 80.0038 30.9839C80.5027 31.5293 80.9669 32.1501 81.3962 32.8463C81.8255 33.5309 82.1794 34.3199 82.4579 35.2133C82.748 36.0952 82.893 37.1221 82.893 38.294Z" fill="white"/>
<path d="M92.5875 30.1659C92.4251 29.9571 92.2278 29.7946 91.9958 29.6786C91.7637 29.5625 91.5316 29.4755 91.2996 29.4175C91.0675 29.3595 90.8528 29.3247 90.6556 29.3131C90.4583 29.2899 90.3191 29.2783 90.2379 29.2783C89.8898 29.2783 89.5765 29.4291 89.298 29.7308C89.0311 30.0325 88.7991 30.4618 88.6018 31.0188C88.4162 31.5757 88.2711 32.2545 88.1667 33.0551C88.0739 33.8442 88.0275 34.7318 88.0275 35.7181C88.0275 36.6695 88.0913 37.5398 88.2189 38.3288C88.3581 39.1062 88.596 39.7792 88.9325 40.3478C89.269 40.9047 89.7215 41.3515 90.2901 41.688C90.8587 42.0245 91.5781 42.2217 92.4483 42.2797L92.3439 45.2734C92.1466 45.2966 91.9494 45.314 91.7521 45.3256C91.5665 45.3372 91.3808 45.343 91.1951 45.343C90.1973 45.343 89.3328 45.2154 88.6018 44.9601C87.8824 44.7164 87.2674 44.3683 86.7569 43.9158C86.2464 43.4633 85.8286 42.9295 85.5037 42.3145C85.1905 41.688 84.941 41.0092 84.7553 40.2782C84.5697 39.5356 84.442 38.7523 84.3724 37.9285C84.3144 37.0931 84.2854 36.2402 84.2854 35.37C84.2854 34.7666 84.297 34.0994 84.3202 33.3684C84.355 32.6258 84.4246 31.8832 84.5291 31.1406C84.6451 30.3864 84.8133 29.6554 85.0338 28.9476C85.2659 28.2398 85.5792 27.6132 85.9737 27.0678C86.3682 26.5109 86.8613 26.07 87.4531 25.7451C88.0565 25.4086 88.7817 25.2403 89.6287 25.2403C90 25.2403 90.3597 25.2693 90.7078 25.3274C91.0559 25.3854 91.375 25.4608 91.6651 25.5536C91.9552 25.6348 92.2046 25.7277 92.4135 25.8321C92.6223 25.9249 92.7732 26.0119 92.866 26.0932L92.5875 30.1659Z" fill="white"/>
<path d="M104.614 33.7339C104.243 33.7919 103.854 33.8616 103.448 33.9428C103.1 34.0124 102.706 34.1052 102.265 34.2213C101.824 34.3373 101.383 34.4707 100.942 34.6216C101.058 34.0414 101.133 33.5367 101.168 33.1073C101.215 32.6664 101.238 32.2661 101.238 31.9064C101.238 31.2798 101.18 30.7925 101.064 30.4444C100.959 30.0847 100.837 29.8178 100.698 29.6438C100.559 29.4697 100.42 29.3653 100.281 29.3305C100.153 29.2957 100.066 29.2783 100.019 29.2783C99.6481 29.2783 99.3464 29.4349 99.1144 29.7482C98.8823 30.0499 98.7025 30.456 98.5748 30.9665C98.4472 31.4655 98.3602 32.0398 98.3137 32.6896C98.2673 33.3394 98.2441 34.0066 98.2441 34.6912C98.2441 35.1785 98.2499 35.6659 98.2615 36.1532C98.2731 36.6405 98.2905 37.1279 98.3137 37.6152L98.5574 44.4553L94.5369 44.7338C94.5369 41.9374 94.5079 39.4195 94.4499 37.1801C94.4034 34.9291 94.3512 33.0087 94.2932 31.4191C94.2236 29.5625 94.1482 27.9091 94.067 26.4587L97.4957 26.2324L97.6698 28.1992C97.9715 27.4566 98.3254 26.8706 98.7315 26.4413C99.1492 26.0003 99.5611 25.6755 99.9672 25.4666C100.385 25.2461 100.762 25.1069 101.099 25.0489C101.447 24.9909 101.708 24.9619 101.882 24.9619C102.474 24.9619 102.955 25.1533 103.326 25.5362C103.698 25.9075 103.988 26.3891 104.197 26.9808C104.405 27.5726 104.545 28.2224 104.614 28.9302C104.696 29.638 104.736 30.3226 104.736 30.9839C104.736 31.5061 104.719 32.005 104.684 32.4808C104.661 32.9449 104.638 33.3626 104.614 33.7339Z" fill="white"/>
<path d="M116.206 34.4823C116.206 35.8979 116.142 37.1395 116.015 38.207C115.887 39.2745 115.701 40.2027 115.458 40.9918C115.226 41.7692 114.941 42.419 114.605 42.9411C114.28 43.4517 113.914 43.8636 113.508 44.1769C113.114 44.4902 112.684 44.7106 112.22 44.8382C111.756 44.9659 111.28 45.0297 110.793 45.0297C110.306 45.0297 109.836 44.9775 109.383 44.8731C108.942 44.7686 108.53 44.5772 108.148 44.2987C107.765 44.0202 107.411 43.6431 107.086 43.1674C106.773 42.6916 106.506 42.0825 106.285 41.3399C106.065 40.5973 105.891 39.7096 105.763 38.6769C105.647 37.6442 105.589 36.4317 105.589 35.0393C105.589 32.9507 105.74 31.2392 106.042 29.9048C106.355 28.5705 106.761 27.5204 107.26 26.7546C107.759 25.9771 108.327 25.4434 108.966 25.1533C109.604 24.8516 110.259 24.7008 110.932 24.7008C111.362 24.7008 111.791 24.7472 112.22 24.84C112.661 24.9212 113.073 25.0895 113.456 25.3448C113.851 25.6 114.216 25.9539 114.553 26.4065C114.889 26.859 115.179 27.4508 115.423 28.1818C115.666 28.9012 115.858 29.7772 115.997 30.8099C116.136 31.8426 116.206 33.0667 116.206 34.4823ZM112.464 34.6216C112.464 33.5077 112.423 32.5968 112.342 31.889C112.261 31.1696 112.151 30.601 112.011 30.1833C111.872 29.7656 111.704 29.4813 111.507 29.3305C111.309 29.168 111.095 29.0868 110.863 29.0868C110.596 29.0868 110.364 29.2028 110.166 29.4349C109.969 29.6554 109.801 30.0151 109.662 30.514C109.534 31.013 109.435 31.6569 109.366 32.446C109.296 33.2234 109.261 34.1748 109.261 35.3004C109.261 36.4375 109.302 37.3831 109.383 38.1374C109.476 38.88 109.598 39.4775 109.749 39.9301C109.911 40.371 110.097 40.6843 110.306 40.8699C110.526 41.0556 110.758 41.1484 111.002 41.1484C111.512 41.1484 111.884 40.6205 112.116 39.5646C112.348 38.5087 112.464 36.861 112.464 34.6216Z" fill="white"/>
<path d="M121.915 43.9854C121.613 43.997 121.271 44.0202 120.888 44.055C120.563 44.0782 120.18 44.1072 119.739 44.1421C119.31 44.1769 118.834 44.2233 118.312 44.2813C118.208 40.3478 118.097 36.8726 117.981 33.8558C117.865 30.8273 117.761 28.2688 117.668 26.1802C117.552 23.7435 117.436 21.6259 117.32 19.8274L121.845 19.6185C121.845 22.2409 121.845 24.6021 121.845 26.7023C121.845 28.7909 121.845 30.6533 121.845 32.2893C121.857 33.9138 121.863 35.3352 121.863 36.5535C121.874 37.7603 121.88 38.7987 121.88 39.669C121.892 41.6996 121.903 43.1384 121.915 43.9854Z" fill="white"/>
<path d="M128.111 43.9854C127.809 43.997 127.467 44.0202 127.084 44.055C126.759 44.0782 126.376 44.1072 125.935 44.1421C125.506 44.1769 125.03 44.2233 124.508 44.2813C124.404 40.3478 124.293 36.8726 124.177 33.8558C124.061 30.8273 123.957 28.2688 123.864 26.1802C123.748 23.7435 123.632 21.6259 123.516 19.8274L128.041 19.6185C128.041 22.2409 128.041 24.6021 128.041 26.7023C128.041 28.7909 128.041 30.6533 128.041 32.2893C128.053 33.9138 128.059 35.3352 128.059 36.5535C128.07 37.7603 128.076 38.7987 128.076 39.669C128.088 41.6996 128.099 43.1384 128.111 43.9854Z" fill="white"/>
<path d="M146.491 26.9112C146.491 27.6886 146.415 28.4718 146.264 29.2609C146.125 30.0383 145.893 30.7925 145.568 31.5235C145.243 32.2429 144.825 32.9217 144.315 33.5599C143.804 34.1864 143.178 34.7434 142.435 35.2307C143.085 36.89 143.799 38.4855 144.576 40.0171C145.365 41.5371 146.241 43.0049 147.204 44.4205L142.853 44.6642L139.894 36.2576C139.94 37.6732 139.998 39.0772 140.068 40.4696C140.138 41.862 140.225 43.237 140.329 44.5946H136.082C136.268 41.9606 136.401 39.3267 136.483 36.6928C136.576 34.0588 136.622 31.4075 136.622 28.7387C136.622 27.1955 136.61 25.658 136.587 24.1264C136.564 22.5832 136.518 21.0283 136.448 19.4619C137.063 19.2763 137.684 19.1544 138.31 19.0964C138.948 19.0384 139.488 19.0094 139.929 19.0094C140.242 19.0094 140.619 19.0442 141.06 19.1138C141.513 19.1718 141.983 19.2995 142.47 19.4967C142.957 19.694 143.439 19.9724 143.915 20.3321C144.402 20.6918 144.831 21.1676 145.203 21.7593C145.585 22.3395 145.893 23.0531 146.125 23.9002C146.369 24.7356 146.491 25.7393 146.491 26.9112ZM139.859 33.438C140.265 33.322 140.619 33.1538 140.921 32.9333C141.234 32.7012 141.507 32.4402 141.739 32.1501C141.971 31.86 142.162 31.5525 142.313 31.2276C142.476 30.9027 142.609 30.5778 142.714 30.2529C142.946 29.4987 143.079 28.6749 143.114 27.7814C143.114 27.7582 143.108 27.619 143.097 27.3637C143.097 27.0969 143.068 26.7662 143.01 26.3716C142.952 25.9771 142.864 25.5478 142.748 25.0837C142.644 24.6196 142.487 24.1728 142.279 23.7435C142.07 23.3026 141.803 22.9139 141.478 22.5774C141.153 22.2409 140.759 22.003 140.294 21.8638C140.155 23.6855 140.045 25.5014 139.964 27.3115C139.894 29.11 139.859 30.9259 139.859 32.7592V33.438Z" fill="white"/>
<path d="M157.978 43.9854C156.899 44.3567 155.912 44.6004 155.019 44.7164C154.137 44.8324 153.412 44.8905 152.843 44.8905C152.136 44.8905 151.515 44.7512 150.981 44.4727C150.447 44.1943 149.983 43.823 149.589 43.3588C149.206 42.8947 148.887 42.3609 148.631 41.7576C148.376 41.1426 148.173 40.4986 148.022 39.8256C147.871 39.1526 147.761 38.4739 147.691 37.7893C147.633 37.0931 147.604 36.4375 147.604 35.8225C147.604 34.2909 147.726 32.8811 147.97 31.5931C148.214 30.2936 148.568 29.1738 149.032 28.234C149.496 27.2941 150.07 26.5631 150.755 26.041C151.439 25.5072 152.217 25.2403 153.087 25.2403C153.806 25.2403 154.462 25.4202 155.054 25.7799C155.645 26.1396 156.15 26.6907 156.568 27.4333C156.986 28.176 157.305 29.1216 157.525 30.2703C157.757 31.4075 157.873 32.7592 157.873 34.3257C157.873 34.7666 157.862 35.2133 157.839 35.6659C157.827 36.1184 157.798 36.5883 157.751 37.0757L151.59 37.8937C151.637 38.323 151.706 38.7291 151.799 39.112C151.903 39.4949 152.037 39.8372 152.199 40.1389C152.373 40.429 152.576 40.6611 152.808 40.8351C153.041 41.0092 153.325 41.0962 153.661 41.0962C154.288 41.0962 154.914 41.0614 155.541 40.9918C156.168 40.9105 156.823 40.8177 157.508 40.7133L157.978 43.9854ZM151.486 34.9349L154.375 34.3953V33.7339C154.375 32.7476 154.3 31.9876 154.149 31.4539C153.998 30.9085 153.835 30.5082 153.661 30.2529C153.452 29.9513 153.215 29.7772 152.948 29.7308C152.611 29.7656 152.344 29.9222 152.147 30.2007C151.95 30.4792 151.799 30.8389 151.695 31.2798C151.602 31.7092 151.544 32.1965 151.521 32.7418C151.497 33.2872 151.486 33.8384 151.486 34.3953V34.9349Z" fill="white"/>
<path d="M170.457 19.6534L170.022 44.6642H166.68V42.8889C166.344 43.3878 166.019 43.7765 165.706 44.055C165.392 44.3219 165.114 44.5192 164.87 44.6468C164.58 44.7976 164.313 44.8905 164.069 44.9253C163.478 44.9253 162.892 44.7512 162.312 44.4031C161.731 44.0434 161.209 43.4517 160.745 42.6278C160.293 41.804 159.921 40.7249 159.631 39.3905C159.341 38.0445 159.196 36.3795 159.196 34.3953C159.196 32.8753 159.318 31.5409 159.562 30.3922C159.817 29.2319 160.153 28.263 160.571 27.4856C160.989 26.7081 161.47 26.1222 162.016 25.7277C162.561 25.3332 163.13 25.1359 163.721 25.1359C164.035 25.1591 164.348 25.2403 164.661 25.3796C164.928 25.5072 165.224 25.6987 165.549 25.9539C165.874 26.2092 166.181 26.5689 166.471 27.033L166.245 19.8274L170.457 19.6534ZM166.785 36.0488C166.761 35.2598 166.732 34.4533 166.698 33.6295C166.674 32.8057 166.599 32.0572 166.471 31.3843C166.344 30.6997 166.146 30.1427 165.88 29.7134C165.624 29.2725 165.259 29.052 164.783 29.052C164.342 29.052 163.994 29.2319 163.739 29.5916C163.495 29.9513 163.309 30.4154 163.182 30.9839C163.066 31.5525 162.996 32.1791 162.973 32.8637C162.95 33.5483 162.938 34.2155 162.938 34.8652C162.938 35.3178 162.944 35.7935 162.956 36.2924C162.979 36.7914 163.014 37.2903 163.06 37.7893C163.106 38.2766 163.176 38.7407 163.269 39.1817C163.362 39.6226 163.478 40.0171 163.617 40.3652C163.756 40.7017 163.924 40.9686 164.122 41.1658C164.331 41.3631 164.574 41.4617 164.853 41.4617C165.201 41.4617 165.497 41.3225 165.74 41.044C165.984 40.7539 166.181 40.3652 166.332 39.8778C166.495 39.3905 166.611 38.822 166.68 38.1722C166.75 37.5108 166.785 36.803 166.785 36.0488Z" fill="white"/>
<path d="M183.267 19.6534L182.832 44.6642H179.49V42.8889C179.154 43.3878 178.829 43.7765 178.516 44.055C178.202 44.3219 177.924 44.5192 177.68 44.6468C177.39 44.7976 177.123 44.8905 176.879 44.9253C176.288 44.9253 175.702 44.7512 175.122 44.4031C174.541 44.0434 174.019 43.4517 173.555 42.6278C173.103 41.804 172.731 40.7249 172.441 39.3905C172.151 38.0445 172.006 36.3795 172.006 34.3953C172.006 32.8753 172.128 31.5409 172.372 30.3922C172.627 29.2319 172.963 28.263 173.381 27.4856C173.799 26.7081 174.28 26.1222 174.826 25.7277C175.371 25.3332 175.94 25.1359 176.531 25.1359C176.845 25.1591 177.158 25.2403 177.471 25.3796C177.738 25.5072 178.034 25.6987 178.359 25.9539C178.684 26.2092 178.991 26.5689 179.281 27.033L179.055 19.8274L183.267 19.6534ZM179.595 36.0488C179.571 35.2598 179.542 34.4533 179.508 33.6295C179.484 32.8057 179.409 32.0572 179.281 31.3843C179.154 30.6997 178.956 30.1427 178.69 29.7134C178.434 29.2725 178.069 29.052 177.593 29.052C177.152 29.052 176.804 29.2319 176.549 29.5916C176.305 29.9513 176.119 30.4154 175.992 30.9839C175.876 31.5525 175.806 32.1791 175.783 32.8637C175.76 33.5483 175.748 34.2155 175.748 34.8652C175.748 35.3178 175.754 35.7935 175.766 36.2924C175.789 36.7914 175.824 37.2903 175.87 37.7893C175.916 38.2766 175.986 38.7407 176.079 39.1817C176.172 39.6226 176.288 40.0171 176.427 40.3652C176.566 40.7017 176.734 40.9686 176.932 41.1658C177.141 41.3631 177.384 41.4617 177.663 41.4617C178.011 41.4617 178.307 41.3225 178.55 41.044C178.794 40.7539 178.991 40.3652 179.142 39.8778C179.305 39.3905 179.421 38.822 179.49 38.1722C179.56 37.5108 179.595 36.803 179.595 36.0488Z" fill="white"/>
<path d="M190.595 21.3242C190.595 21.6839 190.537 22.0204 190.42 22.3337C190.304 22.6354 190.13 22.9023 189.898 23.1343C189.666 23.3548 189.37 23.5288 189.011 23.6565C188.663 23.7841 188.251 23.8479 187.775 23.8479C187.253 23.8479 186.812 23.7841 186.452 23.6565C186.104 23.5288 185.814 23.3548 185.582 23.1343C185.361 22.9023 185.199 22.6354 185.095 22.3337C185.002 22.0204 184.955 21.6839 184.955 21.3242C184.955 20.9761 185.008 20.6512 185.112 20.3496C185.216 20.0363 185.379 19.7636 185.599 19.5315C185.831 19.2995 186.127 19.1196 186.487 18.992C186.847 18.8527 187.276 18.7831 187.775 18.7831C188.274 18.7831 188.697 18.8527 189.045 18.992C189.405 19.1196 189.695 19.2995 189.916 19.5315C190.148 19.7636 190.316 20.0363 190.42 20.3496C190.537 20.6512 190.595 20.9761 190.595 21.3242ZM189.55 26.3891C189.481 27.0272 189.423 27.7118 189.376 28.4428C189.33 29.1738 189.289 29.9339 189.254 30.7229C189.22 31.5003 189.196 32.2951 189.185 33.1073C189.173 33.908 189.167 34.697 189.167 35.4744C189.167 36.3795 189.173 37.2555 189.185 38.1026C189.208 38.938 189.231 39.7096 189.254 40.4174C189.289 41.1252 189.324 41.7518 189.359 42.2971C189.405 42.8425 189.457 43.266 189.515 43.5677C189.051 43.5677 188.57 43.5793 188.071 43.6025C187.642 43.6257 187.16 43.6547 186.626 43.6895C186.092 43.7243 185.559 43.7765 185.025 43.8462C185.222 41.7576 185.356 39.8488 185.425 38.12C185.495 36.3795 185.53 34.8188 185.53 33.438C185.53 32.2545 185.506 31.2218 185.46 30.34C185.425 29.4465 185.385 28.6923 185.338 28.0773C185.292 27.3579 185.234 26.743 185.164 26.2324C185.814 26.3136 186.406 26.3658 186.939 26.3891C187.485 26.4123 187.955 26.4239 188.349 26.4239C188.535 26.4239 188.703 26.4239 188.854 26.4239C189.005 26.4239 189.133 26.4181 189.237 26.4065C189.365 26.4065 189.469 26.4007 189.55 26.3891Z" fill="white"/>
<path d="M197.574 20.9587C197.481 21.8986 197.4 22.8152 197.33 23.7087C197.261 24.5905 197.197 25.4724 197.139 26.3542C197.58 26.331 198.015 26.3136 198.444 26.302C198.885 26.2788 199.332 26.244 199.784 26.1976L199.662 29.7308C199.222 29.7076 198.769 29.696 198.305 29.696C197.852 29.696 197.406 29.696 196.965 29.696C196.872 31.3669 196.802 33.0029 196.756 34.6042C196.721 36.1938 196.704 37.8009 196.704 39.4253C196.704 40.2608 196.709 41.102 196.721 41.949C196.744 42.7845 196.767 43.6315 196.791 44.4902L192.962 44.5598C193.043 42.0651 193.112 39.5994 193.17 37.1627C193.228 34.7144 193.257 32.2487 193.257 29.7656C192.817 29.7888 192.37 29.812 191.917 29.8352C191.465 29.8468 191.018 29.87 190.577 29.9048L190.716 26.0932C191.122 26.1512 191.54 26.1976 191.97 26.2324C192.399 26.2672 192.817 26.2962 193.223 26.3194C193.223 25.4144 193.211 24.5267 193.188 23.6565C193.176 22.7862 193.153 21.8986 193.118 20.9935L197.574 20.9587Z" fill="white"/>
<rect y="11.7581" width="18.1715" height="18.1715" fill="white"/>
<rect y="34.2053" width="18.1715" height="18.1715" fill="white"/>
<rect x="44.8945" y="11.7581" width="18.1715" height="18.1715" fill="white"/>
<rect x="44.8945" y="34.2053" width="18.1715" height="18.1715" fill="white"/>
<rect x="22.4473" width="18.1715" height="18.1715" fill="white"/>
<rect x="22.4473" y="44.8944" width="18.1715" height="18.1715" fill="white"/>
<rect x="22.4473" y="22.4472" width="18.1715" height="18.1715" fill="white"/>
</svg>
